<svg width="86" height="34" viewBox="0 0 86 34" fill="none" xmlns="http://www.w3.org/2000/svg">
<g clip-path="url(#clip0_616_3772)">
<path d="M73.9479 9.94725H75.4361C75.4971 9.94712 75.5562 9.92555 75.6031 9.88628C75.65 9.84701 75.6817 9.79251 75.6928 9.73223L76.0869 7.4671C76.0933 7.4295 76.0915 7.39096 76.0816 7.35414C76.0716 7.31733 76.0538 7.28312 76.0294 7.25391C76.005 7.2247 75.9745 7.20118 75.9401 7.18499C75.9057 7.1688 75.8682 7.16032 75.8302 7.16016H74.3436C74.2823 7.16004 74.2228 7.18172 74.1758 7.22138C74.1288 7.26103 74.0973 7.31609 74.0869 7.37682L73.6928 9.64196C73.6863 9.67956 73.6881 9.71813 73.698 9.75498C73.7078 9.79183 73.7256 9.82608 73.75 9.85534C73.7743 9.88421 73.8047 9.90739 73.8388 9.92327C73.873 9.93915 73.9102 9.94733 73.9479 9.94725Z" fill="white"/>
<path d="M67.9463 9.73223C67.9568 9.79252 67.9881 9.84717 68.0348 9.88652C68.0815 9.92587 68.1405 9.94738 68.2015 9.94726H69.6896C69.7275 9.94738 69.7649 9.93914 69.7993 9.92312C69.8336 9.90711 69.8641 9.8837 69.8884 9.85457C69.9127 9.82544 69.9304 9.7913 69.9401 9.75455C69.9499 9.71781 69.9514 9.67937 69.9447 9.64196L69.5506 7.37682C69.5402 7.31637 69.509 7.26153 69.4623 7.22191C69.4157 7.18229 69.3566 7.16043 69.2955 7.16016H67.8073C67.7693 7.15999 67.7317 7.16826 67.6972 7.18437C67.6627 7.20049 67.6322 7.22404 67.6078 7.25336C67.5835 7.28269 67.5658 7.31705 67.5562 7.35399C67.5466 7.39094 67.5453 7.42956 67.5522 7.4671L67.9463 9.73223Z" fill="white"/>
<path d="M76.3156 10.6345H73.045C73.0139 10.6345 72.9832 10.6283 72.9545 10.6163C72.9258 10.6043 72.8998 10.5868 72.8779 10.5647C72.856 10.5425 72.8387 10.5163 72.827 10.4874C72.8152 10.4585 72.8093 10.4276 72.8095 10.3965V7.25481C72.8095 7.18516 72.7819 7.11836 72.7328 7.06911C72.6838 7.01986 72.6172 6.99219 72.5478 6.99219H71.0908C71.0214 6.99219 70.9548 7.01986 70.9057 7.06911C70.8567 7.11836 70.8291 7.18516 70.8291 7.25481V10.4014C70.8291 10.4642 70.8044 10.5245 70.7602 10.5691C70.7161 10.6137 70.6562 10.6389 70.5936 10.6394H67.2592C67.2248 10.6394 67.1908 10.6462 67.1591 10.6594C67.1273 10.6726 67.0985 10.6919 67.0742 10.7163C67.0499 10.7407 67.0306 10.7696 67.0175 10.8015C67.0043 10.8334 66.9976 10.8675 66.9976 10.902V12.3629C66.9976 12.4325 67.0251 12.4993 67.0742 12.5486C67.1233 12.5978 67.1898 12.6255 67.2592 12.6255H67.9591C67.9817 12.6253 68.0039 12.6303 68.0243 12.6399C68.0447 12.6496 68.0627 12.6637 68.0769 12.6813C68.0912 12.6987 68.1015 12.719 68.1072 12.7408C68.1128 12.7627 68.1137 12.7855 68.1096 12.8077L67.5585 15.7737C67.5515 15.8115 67.5529 15.8504 67.5626 15.8877C67.5723 15.9249 67.59 15.9595 67.6145 15.9891C67.639 16.0187 67.6697 16.0425 67.7044 16.0589C67.739 16.0753 67.7769 16.0838 67.8152 16.0839H69.2968C69.3579 16.0838 69.417 16.0622 69.4639 16.0229C69.5108 15.9837 69.5425 15.9292 69.5536 15.8689L70.121 12.8224C70.1262 12.7692 70.1508 12.7197 70.19 12.6833C70.2291 12.647 70.2803 12.6264 70.3336 12.6255H70.6165C70.6457 12.6233 70.6749 12.6274 70.7023 12.6376C70.7297 12.6478 70.7546 12.6638 70.7752 12.6845C70.7959 12.7052 70.8118 12.7302 70.822 12.7577C70.8321 12.7852 70.8362 12.8146 70.834 12.8438V15.8196C70.834 15.8893 70.8616 15.9561 70.9107 16.0054C70.9597 16.0546 71.0263 16.0823 71.0957 16.0823H72.5527C72.6221 16.0823 72.6887 16.0546 72.7378 16.0054C72.7868 15.9561 72.8144 15.8893 72.8144 15.8196V12.8356C72.8122 12.8063 72.8163 12.777 72.8265 12.7495C72.8366 12.722 72.8526 12.697 72.8732 12.6763C72.8939 12.6556 72.9187 12.6396 72.9461 12.6294C72.9735 12.6192 73.0028 12.6151 73.0319 12.6173H73.3099C73.3633 12.6179 73.4147 12.6383 73.4539 12.6747C73.4932 12.7111 73.5176 12.7608 73.5225 12.8142L74.09 15.8607C74.101 15.921 74.1328 15.9755 74.1796 16.0147C74.2265 16.054 74.2856 16.0756 74.3467 16.0757H75.8283C75.8666 16.0756 75.9045 16.0671 75.9392 16.0507C75.9738 16.0343 76.0045 16.0105 76.029 15.9809C76.0535 15.9513 76.0712 15.9167 76.0809 15.8794C76.0906 15.8422 76.092 15.8033 76.085 15.7655L75.5339 12.7995C75.5305 12.7773 75.5316 12.7546 75.5372 12.7329C75.5429 12.7111 75.5529 12.6908 75.5667 12.6731C75.5812 12.6555 75.5994 12.6413 75.6201 12.6317C75.6407 12.622 75.6633 12.6171 75.686 12.6173H76.3173C76.3864 12.6168 76.4525 12.589 76.5012 12.5398C76.5499 12.4906 76.5773 12.424 76.5773 12.3546V10.8938C76.5771 10.8595 76.5701 10.8256 76.5569 10.7941C76.5436 10.7625 76.5243 10.7338 76.5 10.7097C76.4757 10.6857 76.4469 10.6666 76.4153 10.6537C76.3836 10.6408 76.3498 10.6342 76.3156 10.6345Z" fill="white"/>
<path d="M73.7811 24.559C73.761 24.5419 73.7451 24.5205 73.7346 24.4963C73.7241 24.4721 73.7193 24.4458 73.7205 24.4195C73.7215 24.393 73.7282 24.367 73.7404 24.3434C73.7526 24.3199 73.7698 24.2993 73.7909 24.2832L76.0411 22.545C76.1195 22.484 76.1831 22.4059 76.227 22.3166C76.2709 22.2273 76.294 22.1292 76.2945 22.0296V17.8801C76.2941 17.6051 76.1851 17.3415 75.9914 17.1471C75.7976 16.9526 75.535 16.8432 75.261 16.8428H67.2594C67.1809 16.8428 67.1056 16.8741 67.0501 16.9298C66.9946 16.9855 66.9634 17.0611 66.9634 17.1399V18.4825C66.9634 18.5615 66.9945 18.6372 67.05 18.6932C67.1054 18.7492 67.1807 18.7808 67.2594 18.7813H68.1588C68.2062 18.7813 68.2517 18.8001 68.2854 18.8336C68.3191 18.8671 68.3383 18.9126 68.3387 18.9602V22.0148C68.3382 22.1077 68.3573 22.1996 68.3948 22.2845C68.4323 22.3693 68.4873 22.4453 68.5562 22.5073L70.4254 24.1618C70.4453 24.1793 70.4611 24.201 70.4716 24.2254C70.4822 24.2498 70.4871 24.2763 70.4862 24.3028C70.4852 24.3294 70.4784 24.3554 70.4662 24.379C70.454 24.4026 70.4367 24.4231 70.4156 24.4392L67.3084 26.834C67.2923 26.8463 67.2804 26.8633 67.2745 26.8828C67.2686 26.9022 67.2689 26.923 67.2754 26.9423C67.2819 26.9615 67.2943 26.9782 67.3108 26.99C67.3273 27.0018 67.3471 27.0081 67.3673 27.008H70.216C70.2373 27.0082 70.258 27.0013 70.2749 26.9883L71.8988 25.7342C71.942 25.7004 71.9958 25.683 72.0505 25.6851C72.1053 25.6872 72.1575 25.7087 72.198 25.7457L73.5913 26.9834C73.6093 26.9995 73.6327 27.0083 73.6568 27.008H76.2733C76.2917 27.0069 76.3095 27.0006 76.3245 26.9897C76.3395 26.9788 76.351 26.9638 76.3577 26.9465C76.3644 26.9292 76.3661 26.9103 76.3624 26.8921C76.3587 26.8739 76.3499 26.8572 76.3371 26.8438L73.7811 24.559ZM72.3093 22.975C72.2624 23.0111 72.2048 23.0302 72.1457 23.0292C72.0818 23.0296 72.0201 23.0062 71.9724 22.9636L70.3371 21.5142C70.3097 21.4896 70.2878 21.4595 70.2729 21.4259C70.2579 21.3922 70.2503 21.3557 70.2504 21.3189V18.9602C70.2504 18.9127 70.2692 18.8672 70.3026 18.8337C70.336 18.8001 70.3814 18.7813 70.4286 18.7813H74.0084C74.0977 18.7813 74.1834 18.8169 74.2466 18.8803C74.3098 18.9437 74.3452 19.0297 74.3452 19.1194V21.3074C74.3451 21.3346 74.3389 21.3614 74.327 21.3859C74.3151 21.4103 74.2979 21.4317 74.2766 21.4485L72.3093 22.975Z" fill="white"/>
<path d="M85.7204 8.79516H80.3418C80.2984 8.79516 80.2568 8.77786 80.2262 8.74708C80.1955 8.7163 80.1783 8.67455 80.1783 8.63102V7.34252C80.1783 7.26851 80.149 7.19754 80.0968 7.14521C80.0447 7.09288 79.974 7.06348 79.9003 7.06348H78.5266C78.4529 7.06348 78.3821 7.09288 78.33 7.14521C78.2779 7.19754 78.2486 7.26851 78.2486 7.34252V10.4234C78.2486 10.5054 78.2809 10.5841 78.3385 10.6422C78.3961 10.7003 78.4743 10.7332 78.556 10.7337H83.1349C83.1783 10.7337 83.2199 10.7509 83.2506 10.7817C83.2812 10.8125 83.2985 10.8543 83.2985 10.8978V16.5081C83.2982 17.1951 83.1207 17.8702 82.7833 18.4679L81.9166 19.9994C81.9021 20.0239 81.8815 20.0441 81.8569 20.0582C81.8322 20.0723 81.8044 20.0797 81.776 20.0797C81.7476 20.0797 81.7197 20.0723 81.6951 20.0582C81.6704 20.0441 81.6498 20.0239 81.6353 19.9994L80.7359 18.4827C80.3727 17.8693 80.1806 17.1691 80.1799 16.4556V13.199C80.1799 13.1249 80.1507 13.0537 80.0986 13.0011C80.0465 12.9486 79.9758 12.9188 79.9019 12.9184H78.5282C78.4544 12.9188 78.3836 12.9486 78.3315 13.0011C78.2795 13.0537 78.2502 13.1249 78.2502 13.199V16.4556C78.2477 17.5172 78.5301 18.5599 79.0679 19.4741L80.6231 22.1004C80.6374 22.1253 80.645 22.1536 80.645 22.1824C80.645 22.2112 80.6374 22.2395 80.6231 22.2645L78.0066 26.8916C77.9997 26.9042 77.9961 26.9183 77.9961 26.9326C77.9961 26.947 77.9997 26.9611 78.0066 26.9737C78.0136 26.9857 78.0237 26.9956 78.0357 27.0025C78.0478 27.0094 78.0614 27.013 78.0752 27.0131H80.1112C80.1255 27.013 80.1395 27.0092 80.1518 27.002C80.1642 26.9948 80.1744 26.9844 80.1815 26.972L81.6893 24.3097C81.7016 24.2883 81.7192 24.2706 81.7404 24.2582C81.7617 24.2458 81.7858 24.2392 81.8103 24.2391C81.8347 24.2391 81.8587 24.2454 81.8799 24.2575C81.9011 24.2696 81.9188 24.287 81.9313 24.308L83.5111 26.9737C83.5181 26.9857 83.5282 26.9956 83.5402 27.0025C83.5523 27.0094 83.5659 27.013 83.5797 27.0131H85.6403C85.6546 27.0133 85.6687 27.0096 85.6811 27.0024C85.6935 26.9952 85.7037 26.9847 85.7106 26.972C85.7174 26.9598 85.7211 26.9459 85.7211 26.9318C85.7211 26.9177 85.7174 26.9039 85.7106 26.8916L82.9583 22.2399C82.944 22.2149 82.9364 22.1866 82.9364 22.1578C82.9364 22.129 82.944 22.1007 82.9583 22.0757L84.4596 19.4249C84.9632 18.5353 85.228 17.5296 85.2281 16.5065V10.8912C85.2281 10.8477 85.2454 10.8059 85.276 10.7752C85.3067 10.7444 85.3483 10.7271 85.3917 10.7271H85.7187C85.7928 10.7267 85.8637 10.6969 85.916 10.6444C85.9684 10.5919 85.9979 10.5207 85.9984 10.4464V9.06927C85.9963 8.99639 85.9662 8.92716 85.9143 8.87606C85.8625 8.82497 85.793 8.79598 85.7204 8.79516Z" fill="white"/>
<path d="M61.0174 24.8526H53.4214C53.3618 24.8526 53.3046 24.829 53.2624 24.7869C53.2201 24.7447 53.1961 24.6875 53.1957 24.6277V19.3145C53.1957 19.2545 53.2195 19.1968 53.2618 19.1544C53.3041 19.1119 53.3615 19.088 53.4214 19.088H59.5048C59.5872 19.088 59.6662 19.0552 59.7245 18.9967C59.7827 18.9382 59.8155 18.8589 59.8155 18.7761V17.3662C59.8155 17.2835 59.7827 17.2041 59.7245 17.1457C59.6662 17.0872 59.5872 17.0543 59.5048 17.0543H53.4214C53.3618 17.0543 53.3046 17.0307 53.2624 16.9886C53.2201 16.9464 53.1961 16.8892 53.1957 16.8294V11.8511C53.1957 11.8214 53.2015 11.792 53.2129 11.7646C53.2243 11.7372 53.2409 11.7124 53.2619 11.6915C53.2829 11.6706 53.3078 11.6541 53.3351 11.6428C53.3625 11.6316 53.3918 11.626 53.4214 11.6262H60.1033C60.1856 11.6258 60.2643 11.5928 60.3225 11.5344C60.3807 11.476 60.4136 11.3969 60.414 11.3143V9.90437C60.414 9.82166 60.3813 9.74234 60.323 9.68385C60.2647 9.62536 60.1857 9.5925 60.1033 9.5925H53.4214C53.3615 9.5925 53.3041 9.56864 53.2618 9.52616C53.2195 9.48368 53.1957 9.42606 53.1957 9.36599V7.41929C53.1957 7.33658 53.1629 7.25725 53.1047 7.19876C53.0464 7.14028 52.9674 7.10742 52.885 7.10742H51.4802C51.398 7.10785 51.3192 7.14085 51.261 7.19924C51.2028 7.25763 51.1699 7.33671 51.1695 7.41929V9.35286C51.1697 9.38253 51.1641 9.41194 51.1529 9.43942C51.1418 9.46689 51.1253 9.49188 51.1045 9.51293C51.0837 9.53399 51.0589 9.5507 51.0316 9.5621C51.0043 9.5735 50.975 9.57937 50.9455 9.57937H46.5416C46.5194 9.57908 46.4978 9.57223 46.4794 9.55968L46.378 9.76157L46.481 9.37584C46.6446 8.76031 46.7623 8.24163 46.8343 7.91663C46.844 7.87124 46.8435 7.82422 46.8328 7.77905C46.822 7.73388 46.8013 7.69171 46.7721 7.65565C46.7434 7.61893 46.7066 7.58934 46.6646 7.56913C46.6227 7.54893 46.5766 7.53866 46.5301 7.53911H45.0583C44.9885 7.53883 44.9207 7.5624 44.866 7.60596C44.8113 7.64951 44.773 7.71045 44.7574 7.77875C44.396 9.34137 43.598 12.2943 42.3044 14.5282C42.2767 14.5764 42.2622 14.631 42.2622 14.6866C42.2622 14.7422 42.2767 14.7968 42.3044 14.845C42.3312 14.8922 42.37 14.9313 42.4168 14.9585C42.4637 14.9856 42.5169 14.9997 42.571 14.9993H44.2014C44.2583 15.0003 44.3144 14.9855 44.3634 14.9565C44.4125 14.9275 44.4526 14.8855 44.4794 14.8351C44.9855 13.8281 45.4189 12.7858 45.7762 11.7165C45.784 11.6895 45.8001 11.6657 45.8221 11.6483C45.8441 11.6309 45.8709 11.6209 45.8989 11.6196H50.9455C51.0049 11.6196 51.0619 11.6433 51.1039 11.6855C51.1459 11.7277 51.1695 11.7849 51.1695 11.8445V16.8311C51.1695 16.8907 51.1459 16.9479 51.1039 16.9901C51.0619 17.0323 51.0049 17.056 50.9455 17.056H44.2407C44.1999 17.056 44.1595 17.064 44.1218 17.0797C44.0841 17.0954 44.0498 17.1183 44.0209 17.1473C43.9921 17.1763 43.9692 17.2106 43.9536 17.2485C43.938 17.2863 43.9299 17.3269 43.9299 17.3678V18.7778C43.9299 18.8187 43.938 18.8593 43.9536 18.8971C43.9692 18.935 43.9921 18.9694 44.0209 18.9983C44.0498 19.0273 44.0841 19.0502 44.1218 19.0659C44.1595 19.0816 44.1999 19.0897 44.2407 19.0897H50.9455C50.975 19.0897 51.0043 19.0955 51.0316 19.1069C51.0589 19.1183 51.0837 19.135 51.1045 19.1561C51.1253 19.1772 51.1418 19.2021 51.1529 19.2296C51.1641 19.2571 51.1697 19.2865 51.1695 19.3162V24.6294C51.1695 24.689 51.1459 24.7462 51.1039 24.7884C51.0619 24.8306 51.0049 24.8543 50.9455 24.8543H42.5661C42.5253 24.8543 42.4849 24.8623 42.4472 24.878C42.4095 24.8937 42.3752 24.9166 42.3464 24.9456C42.3175 24.9746 42.2946 25.0089 42.279 25.0468C42.2634 25.0846 42.2554 25.1252 42.2554 25.1661V26.5761C42.2554 26.617 42.2634 26.6576 42.279 26.6954C42.2946 26.7333 42.3175 26.7677 42.3464 26.7966C42.3752 26.8256 42.4095 26.8485 42.4472 26.8642C42.4849 26.8799 42.5253 26.888 42.5661 26.888H61.0174C61.0998 26.888 61.1789 26.8551 61.2371 26.7966C61.2954 26.7381 61.3281 26.6588 61.3281 26.5761V25.1661C61.3284 25.125 61.3205 25.0843 61.305 25.0463C61.2894 25.0082 61.2666 24.9737 61.2377 24.9445C61.2088 24.9154 61.1745 24.8923 61.1367 24.8765C61.0989 24.8607 61.0584 24.8526 61.0174 24.8526Z" fill="white"/>
<path d="M14.6708 34.0004C10.1426 34.0004 6.13934 32.2276 3.40017 29.0089C0.620121 25.7392 -0.513154 21.396 0.214565 16.7821C0.924295 12.2895 3.32167 8.07277 6.97498 4.90979C10.6283 1.74681 15.1124 0.000354924 19.5981 0.000354924C22.4645 -0.0192297 25.2784 0.772055 27.7174 2.28355C28.8553 2.99905 29.8777 3.88466 30.7493 4.90979C31.5148 5.78225 32.1645 6.75052 32.6823 7.79045C32.7641 7.9533 32.8132 8.13073 32.8267 8.31261C32.8402 8.49449 32.8178 8.67726 32.761 8.85049C32.7041 9.02371 32.6138 9.184 32.4952 9.32219C32.3766 9.46038 32.2321 9.57378 32.0698 9.6559C31.9076 9.73803 31.7308 9.78728 31.5496 9.80083C31.3684 9.81438 31.1863 9.79198 31.0137 9.7349C30.8412 9.67782 30.6815 9.58718 30.5438 9.46815C30.4061 9.34913 30.2931 9.20405 30.2113 9.0412C29.7902 8.19418 29.2596 7.40662 28.6332 6.69892C27.954 5.90244 27.1603 5.21203 26.2783 4.65045L26.2554 4.63568C24.2552 3.39797 21.9478 2.75168 19.5981 2.77104C11.6733 2.77104 4.20475 9.24801 2.94882 17.2154C2.34866 21.0136 3.2579 24.5607 5.50483 27.2033C7.70925 29.7934 10.9652 31.2198 14.6708 31.2198C20.0903 31.2198 25.4639 28.1931 28.7231 23.3214C28.8164 23.172 30.8131 19.9598 30.4778 17.1645C30.3258 15.9039 29.8237 15.0799 28.9374 14.6482C27.392 13.8932 25.0437 14.4365 23.5212 15.3639C22.5989 15.9252 21.1778 16.8411 19.6782 17.826L19.7469 17.9721L20.0036 18.5104C21.1958 21.0103 22.1459 22.852 23.5196 23.7629C23.8253 23.9667 24.0379 24.284 24.1106 24.6451C24.1833 25.0061 24.1101 25.3814 23.9071 25.6883C23.7041 25.9952 23.388 26.2086 23.0283 26.2816C22.6685 26.3545 22.2947 26.281 21.9889 26.0773C20.0265 24.7642 18.8916 22.609 17.5065 19.7037L17.3429 19.3492C15.0159 20.8691 12.9423 22.2102 12.0788 22.6616C11.9921 22.7059 11.8973 22.7568 11.7976 22.8109C10.4451 23.5381 7.63075 25.0498 5.58332 23.1802C3.8139 21.5684 4.22765 18.343 6.63321 14.9634C8.53999 12.2846 11.1729 10.7269 13.5016 10.8993C15.7779 11.0634 17.1124 12.7655 18.4501 15.3114C19.8679 14.3889 21.1941 13.5321 22.0903 12.9871C24.2571 11.674 27.5915 10.8976 30.1541 12.1484C31.3724 12.7442 32.8949 14.0393 33.2301 16.8313C33.6929 20.6886 31.1549 24.669 31.047 24.8364C31.0428 24.8416 31.0389 24.8471 31.0355 24.8528C27.2743 30.496 21.0061 34.0004 14.6708 34.0004ZM13.1303 13.6667C11.6308 13.6667 9.93165 15.1078 8.8785 16.5818C7.19412 18.9471 7.04695 20.7707 7.43616 21.1268C8.04286 21.68 9.69289 20.7986 10.4877 20.3652L10.7967 20.2011C11.5784 19.7924 13.8875 18.2954 16.1132 16.8411C15.0895 14.8534 14.2865 13.7487 13.2955 13.6749C13.2383 13.67 13.181 13.6667 13.1303 13.6667Z" fill="white"/>
<mask id="mask0_616_3772" style="mask-type:luminance" maskUnits="userSpaceOnUse" x="4" y="11" width="27" height="14">
<path d="M18.445 15.3148C19.8628 14.3924 21.189 13.5356 22.0852 12.9906C24.252 11.6775 27.5864 10.9011 30.149 12.1518L28.9372 14.6501C27.3918 13.895 25.0435 14.4383 23.521 15.3657C22.5987 15.9271 21.1776 16.843 19.678 17.8278L18.445 15.3148ZM8.87831 16.582C7.19393 18.9473 7.04676 20.7709 7.43597 21.127C8.04267 21.6802 9.6927 20.7988 10.4875 20.3654L10.7965 20.2013C11.5782 19.7926 13.8873 18.2956 16.113 16.8413L17.3395 19.3543C15.0124 20.8743 12.9388 22.2153 12.0754 22.6667C11.9887 22.711 11.8938 22.7619 11.7941 22.816C10.4417 23.5432 7.62729 25.0549 5.57986 23.1854C3.81044 21.5735 4.22419 18.3481 6.62975 14.9685L8.87831 16.582Z" fill="white"/>
</mask>
<g mask="url(#mask0_616_3772)">
<path style="mix-blend-mode:multiply" opacity="0.4" d="M16.6429 16.4717L18.0444 19.1718L14.1032 21.4418L12.7476 19.047L16.6429 16.4717Z" fill="url(#paint0_linear_616_3772)"/>
<path style="mix-blend-mode:multiply" opacity="0.4" d="M19.0159 18.2547L17.7437 15.7614L21.7698 13.209L23.1369 15.5742L19.0159 18.2547Z" fill="url(#paint1_linear_616_3772)"/>
</g>
<path d="M22.7525 26.3121C22.4808 26.312 22.2152 26.2315 21.9888 26.0806C20.0264 24.7675 18.8915 22.6124 17.5064 19.7071L17.2496 19.1654C15.6143 15.7185 14.6233 13.7718 13.2938 13.6733C11.7533 13.56 9.96592 15.0521 8.87843 16.5819C8.66505 16.8816 8.34178 17.0839 7.97974 17.1444C7.61771 17.2049 7.24654 17.1186 6.94793 16.9044C6.64931 16.6902 6.4477 16.3657 6.38744 16.0023C6.32718 15.639 6.4132 15.2664 6.62659 14.9667C8.53338 12.2879 11.1662 10.7303 13.4949 10.9026C16.4909 11.1258 17.8563 13.9966 19.7451 17.9705L20.0019 18.5089C21.1941 21.0087 22.1442 22.8504 23.5178 23.7613C23.7657 23.9263 23.9539 24.1671 24.0547 24.4479C24.1555 24.7288 24.1634 25.0347 24.0774 25.3205C23.9913 25.6062 23.8158 25.8565 23.5768 26.0342C23.3379 26.2119 23.0483 26.3076 22.7509 26.3072L22.7525 26.3121Z" fill="white"/>
</g>
<defs>
<linearGradient id="paint0_linear_616_3772" x1="13.3624" y1="20.1829" x2="17.4209" y2="17.7947" gradientUnits="userSpaceOnUse">
<stop offset="0.16" stop-color="white" stop-opacity="0"/>
<stop offset="0.6" stop-color="#86AEF3" stop-opacity="0.54"/>
<stop offset="0.99" stop-color="#1E68E8"/>
</linearGradient>
<linearGradient id="paint1_linear_616_3772" x1="22.5139" y1="14.4203" x2="18.2632" y2="17.0308" gradientUnits="userSpaceOnUse">
<stop offset="0.16" stop-color="white" stop-opacity="0"/>
<stop offset="0.6" stop-color="#86AEF3" stop-opacity="0.54"/>
<stop offset="0.99" stop-color="#1E68E8"/>
</linearGradient>
<clipPath id="clip0_616_3772">
<rect width="86" height="34" fill="white"/>
</clipPath>
</defs>
</svg>
