<svg xmlns="http://www.w3.org/2000/svg" width="112.659" height="29.767"><g id="组_3329" data-name="组 3329" transform="translate(-150 -25.326)"><path id="合并形状-copy" d="M276.205,485.43a11.45,11.45,0,0,1,11.457,11.443v11.073h-5.729V506.8a11.517,11.517,0,0,1-11.457,0l-2.861-1.667,2.861-4.959,2.887,1.655a5.717,5.717,0,0,0,8.57-4.893v-.057a5.732,5.732,0,0,0-10.693-2.861l-4.965,8.582a11.433,11.433,0,1,1-1.765-13.762l-3.1,5.363-.806,1.4a2.863,2.863,0,1,1-4.968-2.846l.168-.29a.756.756,0,0,0-.657-1.144.8.8,0,0,0-.164,0,5.722,5.722,0,1,0,6.286,8.475l.126-.217,4.877-8.426A11.459,11.459,0,0,1,276.205,485.43Zm52.7-6.484h5.729v28.988h-5.729Zm-89.6,19.323a.8.8,0,0,0,.08.351l5.5,9.5h-6.672l-4.888-8.445-.187-.324-1.714-2.964-.5-.858a.815.815,0,0,1,.684-1.225h1.436a4.991,4.991,0,1,0,.019-9.982h-5.346V508.3h-5.748v-29.37H233.5a10.3,10.3,0,0,1,10.311,10.3v.134a10.294,10.294,0,0,1-4.319,8.391A.809.809,0,0,0,239.31,498.269Zm81.576,9.456h-.153a18.525,18.525,0,0,0-7.714-11.653l-6.874,11.862h-7.027l8.337-14.429a18.568,18.568,0,0,0-4.9-.652h-.191l3.2-5.538a24.118,24.118,0,0,1,4.827,1.106l4.151-7.19a4.584,4.584,0,0,1,3.968-2.289h8.1V507.93h-5.729Zm-5.01-16.623a24.381,24.381,0,0,1,5.01,4.36V485.43h-1.218a.878.878,0,0,0-.764.439Zm-19.813,16.833c-3.375,0-6.11-3.5-6.11-6.866v-22.5h6.11v19.322a4.638,4.638,0,0,0,3.571,4.669l-3.112,5.378Z" transform="translate(-71.976 -453.238)" fill="#397eec" fill-rule="evenodd"/></g></svg>