<svg width="24" height="24" viewBox="0 0 24 24" fill="none" xmlns="http://www.w3.org/2000/svg">
<g clip-path="url(#clip0_701_1342)">
<path d="M19.8548 0H4.14522C1.85588 0 0 1.85588 0 4.14522V19.8548C0 22.1441 1.85588 24 4.14522 24H19.8548C22.1441 24 24 22.1441 24 19.8548V4.14522C24 1.85588 22.1441 0 19.8548 0Z" fill="url(#paint0_linear_701_1342)"/>
<path d="M10.9853 20.7062C8.65722 20.7062 6.59959 19.7986 5.19183 18.1503C3.76138 16.4757 3.17958 14.252 3.55807 11.8875C3.92112 9.58574 5.15642 7.42645 7.03253 5.8063C8.90863 4.18615 11.215 3.29121 13.5213 3.29121C14.9953 3.28094 16.4424 3.68644 17.6965 4.46116C18.2815 4.82855 18.807 5.28307 19.2549 5.80902C19.6468 6.25716 19.979 6.75414 20.2433 7.28758C20.3264 7.45586 20.3396 7.65013 20.2801 7.82809C20.2205 8.00605 20.0931 8.15331 19.9256 8.2378C19.758 8.32229 19.5639 8.33718 19.3854 8.27923C19.2069 8.22128 19.0586 8.09518 18.9726 7.92838C18.7568 7.49427 18.4842 7.09076 18.1621 6.72846C17.8127 6.32064 17.4047 5.96703 16.9513 5.67922L16.9395 5.67197C15.9116 5.03769 14.7254 4.7067 13.5177 4.71712C9.44414 4.71712 5.6048 8.03367 4.95947 12.1117C4.65087 14.0568 5.1174 15.8739 6.27374 17.2263C7.4092 18.5533 9.07928 19.2839 10.9853 19.2839C13.77 19.2839 16.5374 17.7337 18.2075 15.2386C18.2565 15.1623 19.2821 13.514 19.1097 12.0854C19.0316 11.4401 18.7729 11.018 18.3182 10.7965C17.524 10.4108 16.316 10.6885 15.5336 11.1596C15.0598 11.4473 14.33 11.9175 13.5585 12.4185L13.5939 12.4938L13.7255 12.7661C14.3391 14.0477 14.8274 14.9899 15.5336 15.4591C15.6908 15.5636 15.8 15.7262 15.8373 15.9113C15.8746 16.0963 15.8368 16.2885 15.7323 16.4457C15.6279 16.6029 15.4652 16.7122 15.2802 16.7495C15.0952 16.7867 14.9029 16.749 14.7457 16.6445C13.7364 15.9738 13.1546 14.8682 12.443 13.377L12.3523 13.1954C11.156 13.9733 10.0904 14.6604 9.64565 14.8909L9.50133 14.9681C8.80608 15.3402 7.36019 16.1144 6.3055 15.1569C5.39786 14.3318 5.60843 12.6799 6.85009 10.949C7.83035 9.57666 9.18365 8.77975 10.3817 8.86779C11.5517 8.95855 12.2379 9.82354 12.9232 11.1278C13.6493 10.6549 14.3336 10.2202 14.7947 9.937C15.9084 9.2608 17.622 8.86689 18.939 9.50768C19.5653 9.81265 20.3486 10.4761 20.5202 11.9057C20.758 13.8807 19.4537 15.9193 19.3983 16.0055L19.3929 16.0137C17.4659 18.9164 14.2438 20.7062 10.9853 20.7062ZM10.193 10.2937C9.42237 10.2937 8.54921 11.0307 8.00916 11.7859C7.14326 12.9976 7.06703 13.9316 7.26853 14.114C7.57985 14.3972 8.42849 13.9424 8.83602 13.7237L8.99577 13.6393C9.39786 13.4296 10.5841 12.6627 11.7287 11.9148C11.2023 10.8982 10.7893 10.3318 10.2765 10.2946C10.251 10.2937 10.222 10.2937 10.193 10.2937Z" fill="white"/>
<mask id="mask0_701_1342" style="mask-type:luminance" maskUnits="userSpaceOnUse" x="5" y="9" width="14" height="7">
<path d="M12.9278 11.1377C13.6539 10.6648 14.3383 10.23 14.7993 9.94686C15.913 9.27066 17.6267 8.87674 18.9436 9.51754L18.321 10.7964C17.5268 10.4107 16.3187 10.6884 15.5363 11.1595C15.0625 11.4472 14.3328 11.9174 13.5613 12.4184L12.9278 11.1377ZM8.00923 11.7858C7.14333 12.9975 7.0671 13.9314 7.26859 14.1139C7.57992 14.3971 8.42856 13.9423 8.83609 13.7236L8.99584 13.6392C9.39792 13.4295 10.5842 12.6625 11.7288 11.9146L12.3587 13.2026C11.1624 13.9804 10.0968 14.6675 9.65208 14.8981L9.50775 14.9752C8.81249 15.3474 7.36662 16.1216 6.31193 15.164C5.40428 14.339 5.61486 12.687 6.85652 10.9562L8.00923 11.7858Z" fill="white"/>
</mask>
<g mask="url(#mask0_701_1342)">
<path style="mix-blend-mode:multiply" opacity="0.4" d="M12.0013 11.7295L12.722 13.1118L10.6961 14.2754L9.99902 13.0483L12.0013 11.7295Z" fill="url(#paint1_linear_701_1342)"/>
<path style="mix-blend-mode:multiply" opacity="0.4" d="M13.2213 12.6427L12.5669 11.3656L14.6363 10.0586L15.3398 11.2703L13.2213 12.6427Z" fill="url(#paint2_linear_701_1342)"/>
</g>
<path d="M15.1413 16.7698C15.0015 16.7694 14.8649 16.7281 14.7483 16.6509C13.739 15.9801 13.1572 14.8746 12.4456 13.3833L12.3131 13.1056C11.4717 11.3429 10.9625 10.3436 10.2791 10.2919C9.48761 10.2329 8.56907 10.9971 8.00996 11.7804C7.89753 11.9266 7.73279 12.0233 7.55042 12.0504C7.36805 12.0775 7.18229 12.0327 7.03228 11.9255C6.88227 11.8183 6.77972 11.6571 6.74622 11.4758C6.71272 11.2945 6.7509 11.1073 6.85271 10.9536C7.83297 9.5812 9.18627 8.78429 10.3844 8.87233C11.9274 8.98669 12.6263 10.4562 13.5974 12.492L13.729 12.7643C14.3426 14.0459 14.8309 14.9881 15.5371 15.4573C15.6644 15.5419 15.7611 15.6653 15.8129 15.8092C15.8646 15.9531 15.8686 16.1098 15.8243 16.2562C15.78 16.4025 15.6898 16.5307 15.5669 16.6217C15.4441 16.7128 15.2952 16.7618 15.1423 16.7616L15.1413 16.7698Z" fill="white"/>
</g>
<defs>
<linearGradient id="paint0_linear_701_1342" x1="12" y1="24.9757" x2="12" y2="-1.2108" gradientUnits="userSpaceOnUse">
<stop offset="0.15" stop-color="#0066FF"/>
<stop offset="1" stop-color="#009CFE"/>
</linearGradient>
<linearGradient id="paint1_linear_701_1342" x1="10.3149" y1="13.6301" x2="12.397" y2="12.4002" gradientUnits="userSpaceOnUse">
<stop offset="0.16" stop-color="white" stop-opacity="0"/>
<stop offset="0.6" stop-color="#86AEF3" stop-opacity="0.54"/>
<stop offset="0.99" stop-color="#1E68E8"/>
</linearGradient>
<linearGradient id="paint2_linear_701_1342" x1="15.0194" y1="10.6785" x2="12.8383" y2="12.0227" gradientUnits="userSpaceOnUse">
<stop offset="0.16" stop-color="white" stop-opacity="0"/>
<stop offset="0.6" stop-color="#86AEF3" stop-opacity="0.54"/>
<stop offset="0.99" stop-color="#1E68E8"/>
</linearGradient>
<clipPath id="clip0_701_1342">
<rect width="24" height="24" fill="white"/>
</clipPath>
</defs>
</svg>
